<svg viewBox="0 0 45 45" xmlns="http://www.w3.org/2000/svg" shape-rendering="crispEdges" class="app-qr-svg" role="img" aria-label="QR code linking to the Photobox app download"><rect x="2" y="2" width="7" height="1"/><rect x="10" y="2" width="2" height="1"/><rect x="14" y="2" width="1" height="1"/><rect x="16" y="2" width="1" height="1"/><rect x="19" y="2" width="4" height="1"/><rect x="25" y="2" width="1" height="1"/><rect x="30" y="2" width="1" height="1"/><rect x="32" y="2" width="3" height="1"/><rect x="36" y="2" width="7" height="1"/><rect x="2" y="3" width="1" height="1"/><rect x="8" y="3" width="1" height="1"/><rect x="10" y="3" width="2" height="1"/><rect x="13" y="3" width="6" height="1"/><rect x="20" y="3" width="1" height="1"/><rect x="24" y="3" width="2" height="1"/><rect x="28" y="3" width="1" height="1"/><rect x="31" y="3" width="2" height="1"/><rect x="34" y="3" width="1" height="1"/><rect x="36" y="3" width="1" height="1"/><rect x="42" y="3" width="1" height="1"/><rect x="2" y="4" width="1" height="1"/><rect x="4" y="4" width="3" height="1"/><rect x="8" y="4" width="1" height="1"/><rect x="11" y="4" width="3" height="1"/><rect x="18" y="4" width="1" height="1"/><rect x="20" y="4" width="1" height="1"/><rect x="22" y="4" width="1" height="1"/><rect x="26" y="4" width="2" height="1"/><rect x="30" y="4" width="1" height="1"/><rect x="33" y="4" width="1" height="1"/><rect x="36" y="4" width="1" height="1"/><rect x="38" y="4" width="3" height="1"/><rect x="42" y="4" width="1" height="1"/><rect x="2" y="5" width="1" height="1"/><rect x="4" y="5" width="3" height="1"/><rect x="8" y="5" width="1" height="1"/><rect x="10" y="5" width="1" height="1"/><rect x="13" y="5" width="2" height="1"/><rect x="16" y="5" width="1" height="1"/><rect x="18" y="5" width="1" height="1"/><rect x="20" y="5" width="1" height="1"/><rect x="22" y="5" width="1" height="1"/><rect x="24" y="5" width="1" height="1"/><rect x="26" y="5" width="2" height="1"/><rect x="30" y="5" width="2" height="1"/><rect x="34" y="5" width="1" height="1"/><rect x="36" y="5" width="1" height="1"/><rect x="38" y="5" width="3" height="1"/><rect x="42" y="5" width="1" height="1"/><rect x="2" y="6" width="1" height="1"/><rect x="4" y="6" width="3" height="1"/><rect x="8" y="6" width="1" height="1"/><rect x="11" y="6" width="2" height="1"/><rect x="14" y="6" width="2" height="1"/><rect x="17" y="6" width="1" height="1"/><rect x="19" y="6" width="1" height="1"/><rect x="21" y="6" width="1" height="1"/><rect x="24" y="6" width="1" height="1"/><rect x="26" y="6" width="1" height="1"/><rect x="28" y="6" width="4" height="1"/><rect x="33" y="6" width="1" height="1"/><rect x="36" y="6" width="1" height="1"/><rect x="38" y="6" width="3" height="1"/><rect x="42" y="6" width="1" height="1"/><rect x="2" y="7" width="1" height="1"/><rect x="8" y="7" width="1" height="1"/><rect x="11" y="7" width="1" height="1"/><rect x="13" y="7" width="1" height="1"/><rect x="16" y="7" width="1" height="1"/><rect x="20" y="7" width="3" height="1"/><rect x="27" y="7" width="1" height="1"/><rect x="33" y="7" width="1" height="1"/><rect x="36" y="7" width="1" height="1"/><rect x="42" y="7" width="1" height="1"/><rect x="2" y="8" width="7" height="1"/><rect x="10" y="8" width="1" height="1"/><rect x="12" y="8" width="1" height="1"/><rect x="14" y="8" width="1" height="1"/><rect x="16" y="8" width="1" height="1"/><rect x="18" y="8" width="1" height="1"/><rect x="20" y="8" width="1" height="1"/><rect x="22" y="8" width="1" height="1"/><rect x="24" y="8" width="1" height="1"/><rect x="26" y="8" width="1" height="1"/><rect x="28" y="8" width="1" height="1"/><rect x="30" y="8" width="1" height="1"/><rect x="32" y="8" width="1" height="1"/><rect x="34" y="8" width="1" height="1"/><rect x="36" y="8" width="7" height="1"/><rect x="10" y="9" width="1" height="1"/><rect x="12" y="9" width="1" height="1"/><rect x="14" y="9" width="2" height="1"/><rect x="19" y="9" width="1" height="1"/><rect x="22" y="9" width="1" height="1"/><rect x="24" y="9" width="1" height="1"/><rect x="28" y="9" width="5" height="1"/><rect x="2" y="10" width="1" height="1"/><rect x="4" y="10" width="2" height="1"/><rect x="7" y="10" width="3" height="1"/><rect x="11" y="10" width="1" height="1"/><rect x="13" y="10" width="3" height="1"/><rect x="18" y="10" width="3" height="1"/><rect x="22" y="10" width="2" height="1"/><rect x="28" y="10" width="2" height="1"/><rect x="31" y="10" width="2" height="1"/><rect x="36" y="10" width="1" height="1"/><rect x="39" y="10" width="1" height="1"/><rect x="41" y="10" width="2" height="1"/><rect x="2" y="11" width="1" height="1"/><rect x="4" y="11" width="4" height="1"/><rect x="9" y="11" width="1" height="1"/><rect x="11" y="11" width="2" height="1"/><rect x="14" y="11" width="1" height="1"/><rect x="16" y="11" width="1" height="1"/><rect x="18" y="11" width="1" height="1"/><rect x="20" y="11" width="3" height="1"/><rect x="24" y="11" width="2" height="1"/><rect x="28" y="11" width="1" height="1"/><rect x="30" y="11" width="1" height="1"/><rect x="32" y="11" width="7" height="1"/><rect x="40" y="11" width="3" height="1"/><rect x="4" y="12" width="1" height="1"/><rect x="6" y="12" width="1" height="1"/><rect x="8" y="12" width="1" height="1"/><rect x="12" y="12" width="2" height="1"/><rect x="19" y="12" width="1" height="1"/><rect x="23" y="12" width="3" height="1"/><rect x="27" y="12" width="2" height="1"/><rect x="30" y="12" width="1" height="1"/><rect x="35" y="12" width="1" height="1"/><rect x="37" y="12" width="1" height="1"/><rect x="40" y="12" width="2" height="1"/><rect x="4" y="13" width="4" height="1"/><rect x="9" y="13" width="1" height="1"/><rect x="11" y="13" width="6" height="1"/><rect x="21" y="13" width="1" height="1"/><rect x="26" y="13" width="2" height="1"/><rect x="32" y="13" width="1" height="1"/><rect x="34" y="13" width="1" height="1"/><rect x="37" y="13" width="1" height="1"/><rect x="41" y="13" width="2" height="1"/><rect x="2" y="14" width="7" height="1"/><rect x="10" y="14" width="1" height="1"/><rect x="12" y="14" width="2" height="1"/><rect x="17" y="14" width="1" height="1"/><rect x="19" y="14" width="1" height="1"/><rect x="21" y="14" width="1" height="1"/><rect x="24" y="14" width="1" height="1"/><rect x="26" y="14" width="3" height="1"/><rect x="30" y="14" width="4" height="1"/><rect x="35" y="14" width="1" height="1"/><rect x="37" y="14" width="6" height="1"/><rect x="2" y="15" width="1" height="1"/><rect x="4" y="15" width="3" height="1"/><rect x="9" y="15" width="2" height="1"/><rect x="12" y="15" width="1" height="1"/><rect x="15" y="15" width="2" height="1"/><rect x="18" y="15" width="1" height="1"/><rect x="21" y="15" width="1" height="1"/><rect x="24" y="15" width="1" height="1"/><rect x="27" y="15" width="5" height="1"/><rect x="33" y="15" width="1" height="1"/><rect x="35" y="15" width="2" height="1"/><rect x="39" y="15" width="1" height="1"/><rect x="41" y="15" width="2" height="1"/><rect x="3" y="16" width="3" height="1"/><rect x="8" y="16" width="2" height="1"/><rect x="11" y="16" width="1" height="1"/><rect x="13" y="16" width="1" height="1"/><rect x="15" y="16" width="1" height="1"/><rect x="21" y="16" width="3" height="1"/><rect x="28" y="16" width="1" height="1"/><rect x="30" y="16" width="1" height="1"/><rect x="32" y="16" width="3" height="1"/><rect x="36" y="16" width="7" height="1"/><rect x="3" y="17" width="4" height="1"/><rect x="9" y="17" width="1" height="1"/><rect x="13" y="17" width="1" height="1"/><rect x="16" y="17" width="1" height="1"/><rect x="22" y="17" width="2" height="1"/><rect x="26" y="17" width="1" height="1"/><rect x="28" y="17" width="2" height="1"/><rect x="33" y="17" width="2" height="1"/><rect x="36" y="17" width="2" height="1"/><rect x="39" y="17" width="1" height="1"/><rect x="42" y="17" width="1" height="1"/><rect x="4" y="18" width="1" height="1"/><rect x="7" y="18" width="3" height="1"/><rect x="11" y="18" width="1" height="1"/><rect x="18" y="18" width="1" height="1"/><rect x="20" y="18" width="8" height="1"/><rect x="32" y="18" width="2" height="1"/><rect x="38" y="18" width="1" height="1"/><rect x="41" y="18" width="2" height="1"/><rect x="2" y="19" width="1" height="1"/><rect x="4" y="19" width="2" height="1"/><rect x="9" y="19" width="3" height="1"/><rect x="13" y="19" width="2" height="1"/><rect x="16" y="19" width="1" height="1"/><rect x="19" y="19" width="1" height="1"/><rect x="22" y="19" width="1" height="1"/><rect x="25" y="19" width="5" height="1"/><rect x="31" y="19" width="2" height="1"/><rect x="34" y="19" width="2" height="1"/><rect x="37" y="19" width="1" height="1"/><rect x="39" y="19" width="1" height="1"/><rect x="3" y="20" width="2" height="1"/><rect x="8" y="20" width="8" height="1"/><rect x="19" y="20" width="1" height="1"/><rect x="22" y="20" width="2" height="1"/><rect x="26" y="20" width="2" height="1"/><rect x="29" y="20" width="1" height="1"/><rect x="34" y="20" width="1" height="1"/><rect x="38" y="20" width="1" height="1"/><rect x="41" y="20" width="1" height="1"/><rect x="4" y="21" width="1" height="1"/><rect x="7" y="21" width="1" height="1"/><rect x="10" y="21" width="1" height="1"/><rect x="12" y="21" width="1" height="1"/><rect x="14" y="21" width="1" height="1"/><rect x="17" y="21" width="2" height="1"/><rect x="25" y="21" width="1" height="1"/><rect x="30" y="21" width="2" height="1"/><rect x="34" y="21" width="1" height="1"/><rect x="37" y="21" width="1" height="1"/><rect x="39" y="21" width="2" height="1"/><rect x="42" y="21" width="1" height="1"/><rect x="2" y="22" width="1" height="1"/><rect x="7" y="22" width="3" height="1"/><rect x="11" y="22" width="2" height="1"/><rect x="16" y="22" width="2" height="1"/><rect x="20" y="22" width="1" height="1"/><rect x="22" y="22" width="2" height="1"/><rect x="25" y="22" width="2" height="1"/><rect x="28" y="22" width="1" height="1"/><rect x="30" y="22" width="2" height="1"/><rect x="35" y="22" width="4" height="1"/><rect x="40" y="22" width="1" height="1"/><rect x="42" y="22" width="1" height="1"/><rect x="5" y="23" width="2" height="1"/><rect x="14" y="23" width="2" height="1"/><rect x="17" y="23" width="9" height="1"/><rect x="30" y="23" width="2" height="1"/><rect x="33" y="23" width="10" height="1"/><rect x="4" y="24" width="2" height="1"/><rect x="7" y="24" width="4" height="1"/><rect x="12" y="24" width="1" height="1"/><rect x="14" y="24" width="1" height="1"/><rect x="18" y="24" width="2" height="1"/><rect x="22" y="24" width="2" height="1"/><rect x="25" y="24" width="1" height="1"/><rect x="27" y="24" width="2" height="1"/><rect x="31" y="24" width="2" height="1"/><rect x="35" y="24" width="2" height="1"/><rect x="41" y="24" width="1" height="1"/><rect x="2" y="25" width="6" height="1"/><rect x="10" y="25" width="2" height="1"/><rect x="13" y="25" width="4" height="1"/><rect x="18" y="25" width="1" height="1"/><rect x="21" y="25" width="2" height="1"/><rect x="24" y="25" width="1" height="1"/><rect x="27" y="25" width="1" height="1"/><rect x="34" y="25" width="2" height="1"/><rect x="37" y="25" width="2" height="1"/><rect x="42" y="25" width="1" height="1"/><rect x="4" y="26" width="1" height="1"/><rect x="7" y="26" width="3" height="1"/><rect x="13" y="26" width="2" height="1"/><rect x="16" y="26" width="4" height="1"/><rect x="27" y="26" width="3" height="1"/><rect x="31" y="26" width="1" height="1"/><rect x="33" y="26" width="1" height="1"/><rect x="37" y="26" width="1" height="1"/><rect x="40" y="26" width="3" height="1"/><rect x="2" y="27" width="1" height="1"/><rect x="4" y="27" width="4" height="1"/><rect x="9" y="27" width="1" height="1"/><rect x="14" y="27" width="1" height="1"/><rect x="19" y="27" width="3" height="1"/><rect x="26" y="27" width="5" height="1"/><rect x="33" y="27" width="4" height="1"/><rect x="39" y="27" width="2" height="1"/><rect x="42" y="27" width="1" height="1"/><rect x="4" y="28" width="5" height="1"/><rect x="11" y="28" width="2" height="1"/><rect x="16" y="28" width="1" height="1"/><rect x="20" y="28" width="3" height="1"/><rect x="27" y="28" width="1" height="1"/><rect x="32" y="28" width="3" height="1"/><rect x="36" y="28" width="4" height="1"/><rect x="41" y="28" width="2" height="1"/><rect x="2" y="29" width="1" height="1"/><rect x="5" y="29" width="1" height="1"/><rect x="7" y="29" width="1" height="1"/><rect x="9" y="29" width="1" height="1"/><rect x="11" y="29" width="1" height="1"/><rect x="13" y="29" width="2" height="1"/><rect x="16" y="29" width="1" height="1"/><rect x="18" y="29" width="1" height="1"/><rect x="21" y="29" width="3" height="1"/><rect x="25" y="29" width="1" height="1"/><rect x="28" y="29" width="3" height="1"/><rect x="33" y="29" width="2" height="1"/><rect x="36" y="29" width="2" height="1"/><rect x="39" y="29" width="1" height="1"/><rect x="41" y="29" width="1" height="1"/><rect x="2" y="30" width="1" height="1"/><rect x="4" y="30" width="5" height="1"/><rect x="10" y="30" width="2" height="1"/><rect x="14" y="30" width="1" height="1"/><rect x="20" y="30" width="1" height="1"/><rect x="22" y="30" width="3" height="1"/><rect x="26" y="30" width="2" height="1"/><rect x="30" y="30" width="4" height="1"/><rect x="37" y="30" width="3" height="1"/><rect x="41" y="30" width="1" height="1"/><rect x="7" y="31" width="1" height="1"/><rect x="11" y="31" width="2" height="1"/><rect x="15" y="31" width="2" height="1"/><rect x="18" y="31" width="1" height="1"/><rect x="20" y="31" width="1" height="1"/><rect x="22" y="31" width="1" height="1"/><rect x="24" y="31" width="4" height="1"/><rect x="29" y="31" width="1" height="1"/><rect x="32" y="31" width="1" height="1"/><rect x="39" y="31" width="2" height="1"/><rect x="2" y="32" width="1" height="1"/><rect x="5" y="32" width="2" height="1"/><rect x="8" y="32" width="2" height="1"/><rect x="14" y="32" width="1" height="1"/><rect x="16" y="32" width="1" height="1"/><rect x="18" y="32" width="2" height="1"/><rect x="22" y="32" width="3" height="1"/><rect x="26" y="32" width="1" height="1"/><rect x="28" y="32" width="5" height="1"/><rect x="34" y="32" width="4" height="1"/><rect x="39" y="32" width="1" height="1"/><rect x="41" y="32" width="1" height="1"/><rect x="4" y="33" width="1" height="1"/><rect x="10" y="33" width="3" height="1"/><rect x="14" y="33" width="1" height="1"/><rect x="16" y="33" width="1" height="1"/><rect x="19" y="33" width="1" height="1"/><rect x="21" y="33" width="1" height="1"/><rect x="24" y="33" width="2" height="1"/><rect x="31" y="33" width="3" height="1"/><rect x="36" y="33" width="1" height="1"/><rect x="38" y="33" width="5" height="1"/><rect x="3" y="34" width="2" height="1"/><rect x="6" y="34" width="1" height="1"/><rect x="8" y="34" width="1" height="1"/><rect x="15" y="34" width="1" height="1"/><rect x="17" y="34" width="1" height="1"/><rect x="19" y="34" width="2" height="1"/><rect x="23" y="34" width="1" height="1"/><rect x="28" y="34" width="1" height="1"/><rect x="31" y="34" width="1" height="1"/><rect x="34" y="34" width="7" height="1"/><rect x="42" y="34" width="1" height="1"/><rect x="10" y="35" width="3" height="1"/><rect x="15" y="35" width="1" height="1"/><rect x="17" y="35" width="1" height="1"/><rect x="21" y="35" width="1" height="1"/><rect x="23" y="35" width="1" height="1"/><rect x="25" y="35" width="1" height="1"/><rect x="30" y="35" width="5" height="1"/><rect x="38" y="35" width="1" height="1"/><rect x="41" y="35" width="2" height="1"/><rect x="2" y="36" width="7" height="1"/><rect x="10" y="36" width="1" height="1"/><rect x="13" y="36" width="2" height="1"/><rect x="18" y="36" width="2" height="1"/><rect x="22" y="36" width="2" height="1"/><rect x="25" y="36" width="2" height="1"/><rect x="28" y="36" width="1" height="1"/><rect x="30" y="36" width="5" height="1"/><rect x="36" y="36" width="1" height="1"/><rect x="38" y="36" width="1" height="1"/><rect x="41" y="36" width="1" height="1"/><rect x="2" y="37" width="1" height="1"/><rect x="8" y="37" width="1" height="1"/><rect x="10" y="37" width="1" height="1"/><rect x="13" y="37" width="1" height="1"/><rect x="15" y="37" width="1" height="1"/><rect x="20" y="37" width="3" height="1"/><rect x="24" y="37" width="6" height="1"/><rect x="32" y="37" width="1" height="1"/><rect x="34" y="37" width="1" height="1"/><rect x="38" y="37" width="1" height="1"/><rect x="41" y="37" width="2" height="1"/><rect x="2" y="38" width="1" height="1"/><rect x="4" y="38" width="3" height="1"/><rect x="8" y="38" width="1" height="1"/><rect x="11" y="38" width="1" height="1"/><rect x="15" y="38" width="2" height="1"/><rect x="18" y="38" width="1" height="1"/><rect x="20" y="38" width="3" height="1"/><rect x="24" y="38" width="1" height="1"/><rect x="27" y="38" width="2" height="1"/><rect x="30" y="38" width="2" height="1"/><rect x="34" y="38" width="5" height="1"/><rect x="40" y="38" width="1" height="1"/><rect x="2" y="39" width="1" height="1"/><rect x="4" y="39" width="3" height="1"/><rect x="8" y="39" width="1" height="1"/><rect x="10" y="39" width="1" height="1"/><rect x="13" y="39" width="1" height="1"/><rect x="15" y="39" width="2" height="1"/><rect x="18" y="39" width="4" height="1"/><rect x="23" y="39" width="1" height="1"/><rect x="25" y="39" width="3" height="1"/><rect x="29" y="39" width="3" height="1"/><rect x="34" y="39" width="1" height="1"/><rect x="38" y="39" width="3" height="1"/><rect x="42" y="39" width="1" height="1"/><rect x="2" y="40" width="1" height="1"/><rect x="4" y="40" width="3" height="1"/><rect x="8" y="40" width="1" height="1"/><rect x="10" y="40" width="1" height="1"/><rect x="12" y="40" width="1" height="1"/><rect x="15" y="40" width="1" height="1"/><rect x="17" y="40" width="7" height="1"/><rect x="26" y="40" width="2" height="1"/><rect x="31" y="40" width="1" height="1"/><rect x="37" y="40" width="1" height="1"/><rect x="40" y="40" width="3" height="1"/><rect x="2" y="41" width="1" height="1"/><rect x="8" y="41" width="1" height="1"/><rect x="11" y="41" width="2" height="1"/><rect x="14" y="41" width="1" height="1"/><rect x="18" y="41" width="1" height="1"/><rect x="20" y="41" width="4" height="1"/><rect x="25" y="41" width="1" height="1"/><rect x="28" y="41" width="1" height="1"/><rect x="32" y="41" width="1" height="1"/><rect x="34" y="41" width="1" height="1"/><rect x="36" y="41" width="1" height="1"/><rect x="38" y="41" width="1" height="1"/><rect x="41" y="41" width="1" height="1"/><rect x="2" y="42" width="7" height="1"/><rect x="10" y="42" width="5" height="1"/><rect x="17" y="42" width="1" height="1"/><rect x="20" y="42" width="5" height="1"/><rect x="27" y="42" width="1" height="1"/><rect x="30" y="42" width="1" height="1"/><rect x="32" y="42" width="5" height="1"/><rect x="41" y="42" width="1" height="1"/></svg>